<?xml version="1.0" standalone="no"?>
<!DOCTYPE svg PUBLIC "-//W3C//DTD SVG 20010904//EN"
 "http://www.w3.org/TR/2001/REC-SVG-20010904/DTD/svg10.dtd">
<svg version="1.0" xmlns="http://www.w3.org/2000/svg"
 width="180.000000pt" height="180.000000pt" viewBox="0 0 180.000000 180.000000"
 preserveAspectRatio="xMidYMid meet">
<metadata>
Created by potrace 1.11, written by Peter Selinger 2001-2013
</metadata>
<g transform="translate(0.000000,180.000000) scale(0.100000,-0.100000)"
fill="#000000" stroke="none">
<path d="M735 1481 c-199 -57 -368 -229 -419 -427 -21 -80 -21 -228 0 -308 52
-201 229 -378 430 -431 76 -20 229 -19 308 1 202 52 378 228 430 430 21 80 21
228 0 308 -52 201 -229 378 -430 431 -79 20 -241 19 -319 -4z m182 -267 l203
-69 0 -65 0 -65 -143 -122 c-128 -110 -143 -120 -155 -105 -7 9 -18 16 -23 14
-6 -1 -8 2 -5 7 4 5 -5 18 -19 30 l-26 20 110 97 c61 54 111 101 111 104 0 3
-39 19 -87 34 -49 16 -112 37 -140 48 l-53 19 0 66 c0 48 3 64 13 61 6 -3 103
-36 214 -74z m-152 -424 c32 -11 63 -24 69 -29 6 -5 73 -30 149 -56 l137 -48
0 -63 c0 -35 -3 -64 -7 -64 -5 0 -102 33 -218 73 l-210 73 -3 67 c-3 77 -4 77
83 47z"/>
</g>
</svg>
